<svg id="Vrstva_1" data-name="Vrstva 1" xmlns="http://www.w3.org/2000/svg" width="514" height="291" viewBox="0 0 514 291"><title>tools_restor_icon</title><polygon points="113.559 82.335 88.805 57.581 25.64 120.746 25.64 120.746 0.886 145.5 25.64 170.254 88.805 233.419 113.559 208.665 50.394 145.5 113.559 82.335" style="fill:#54b47f"/><polygon points="400.441 82.335 425.195 57.581 488.36 120.746 488.36 120.746 513.114 145.5 488.36 170.254 425.195 233.419 400.441 208.665 463.606 145.5 400.441 82.335" style="fill:#54b47f"/><path d="M400.69,161.4a153.551,153.551,0,0,0,.9-15.906,149.264,149.264,0,0,0-.922-15.923l-39.51-14.062a108.774,108.774,0,0,0-9.345-22.521l17.966-37.793a146.1,146.1,0,0,0-22.539-22.539L309.4,50.619a108.07,108.07,0,0,0-22.466-9.29L272.9,1.819a137.8,137.8,0,0,0-31.828,0L227.015,41.33a107.567,107.567,0,0,0-22.5,9.29L166.7,32.654a145.964,145.964,0,0,0-22.538,22.539l17.966,37.793a108.111,108.111,0,0,0-9.291,22.52L113.31,129.568a149.022,149.022,0,0,0-.9,15.923,144.452,144.452,0,0,0,.922,15.923l39.528,14.062a107.476,107.476,0,0,0,9.29,22.5L144.18,235.79a145.312,145.312,0,0,0,22.539,22.539l37.793-17.966a109.185,109.185,0,0,0,22.521,9.308L241.1,289.2a153.516,153.516,0,0,0,15.905.9,149.283,149.283,0,0,0,15.924-.922l14.061-39.546a107.434,107.434,0,0,0,22.5-9.291L347.3,258.31a145.218,145.218,0,0,0,22.539-22.538L351.872,197.96a111.14,111.14,0,0,0,9.308-22.5ZM257,217.789a72.3,72.3,0,1,1,72.3-72.3A72.3,72.3,0,0,1,257,217.789Z" style="fill:#54b47f"/><circle cx="257" cy="145.491" r="31.218" style="fill:#54b47f"/></svg>